<?xml version="1.0" standalone="no"?>
<!DOCTYPE svg PUBLIC "-//W3C//DTD SVG 20010904//EN"
 "http://www.w3.org/TR/2001/REC-SVG-20010904/DTD/svg10.dtd">
<svg version="1.0" xmlns="http://www.w3.org/2000/svg"
 width="1408.000000pt" height="768.000000pt" viewBox="0 0 1408.000000 768.000000"
 preserveAspectRatio="xMidYMid meet">

<g transform="translate(0.000000,768.000000) scale(0.100000,-0.100000)"
fill="#000000" stroke="none">
<path d="M6785 7674 c-721 -58 -1378 -292 -1947 -694 -659 -466 -1151 -1123
-1416 -1891 -91 -264 -162 -591 -194 -889 -18 -174 -15 -566 6 -745 80 -693
330 -1322 745 -1875 425 -567 1025 -1034 1671 -1300 325 -133 637 -213 1025
-261 155 -20 599 -17 775 4 783 97 1499 424 2115 968 988 873 1466 2193 1255
3464 -110 662 -379 1269 -790 1785 -363 456 -859 846 -1380 1085 -375 173
-754 280 -1165 331 -124 15 -586 27 -700 18z m-1280 -1478 c28 -97 63 -172 91
-197 32 -28 99 -58 190 -84 89 -26 110 -35 81 -35 -38 0 -207 -62 -245 -90
-49 -35 -80 -91 -117 -215 l-28 -90 -33 105 c-58 185 -89 214 -279 271 l-90
27 45 11 c71 18 182 59 217 80 38 24 83 113 115 228 13 45 24 80 25 79 2 -1
14 -42 28 -90z m213 -1283 c115 -255 406 -893 451 -993 22 -47 51 -112 66
-145 38 -83 128 -281 153 -335 87 -187 485 -1069 489 -1082 5 -17 -7 -18 -154
-18 l-160 0 -100 223 c-55 122 -131 291 -169 375 l-68 152 -751 0 -752 0 -164
-372 -165 -373 -157 -3 c-93 -1 -157 1 -157 7 0 12 45 116 145 336 42 94 119
262 170 375 621 1375 907 2005 918 2018 7 9 53 12 167 12 l157 0 81 -177z
m1765 85 c66 -113 211 -364 672 -1163 133 -231 283 -493 334 -582 51 -90 96
-163 100 -163 4 0 32 44 61 98 55 99 905 1587 1021 1787 l64 110 133 3 132 3
0 -1376 0 -1375 -145 0 -145 0 0 1082 c0 902 -2 1080 -13 1068 -8 -8 -65 -105
-127 -215 -62 -110 -128 -225 -146 -255 -18 -30 -191 -334 -384 -675 -194
-341 -359 -631 -367 -644 -15 -23 -18 -23 -97 -17 -44 4 -82 10 -84 14 -1 4
-106 189 -233 412 -568 998 -793 1390 -798 1390 -3 0 -6 -485 -6 -1077 l0
-1078 -147 -3 -148 -3 0 1376 0 1375 134 0 134 0 55 -92z"/>
<path d="M5426 4687 c-56 -130 -430 -983 -468 -1067 -12 -25 -44 -98 -73 -162
l-53 -118 644 0 643 0 -35 78 c-20 42 -164 366 -321 720 -158 353 -289 642
-292 642 -3 0 -24 -42 -45 -93z"/>
</g>
</svg>
